<svg width="91" height="90" viewBox="0 0 91 90" fill="none" xmlns="http://www.w3.org/2000/svg">
<g clip-path="url(#clip0)">
<path d="M84.1996 40.6694L81.869 31.3468C82.5062 31.2115 82.9843 30.6461 82.9843 29.9689V28.4658C82.9843 25.2022 80.3291 22.5472 77.0657 22.5472H66.45V19.4468C66.45 17.8408 65.1436 16.5344 63.5376 16.5344H9.42477C7.81883 16.5344 6.51242 17.8408 6.51242 19.4468V45.0001C6.51242 45.7783 7.1433 46.4093 7.92166 46.4093C8.69984 46.4093 9.3309 45.7784 9.3309 45.0001V19.4468C9.3309 19.3951 9.37291 19.3529 9.42477 19.3529H63.5374C63.5893 19.3529 63.6313 19.3953 63.6313 19.4468V45.0004C63.6313 45.7786 64.2622 46.4097 65.0406 46.4097C65.8187 46.4097 66.4498 45.7788 66.4498 45.0004V43.4029H83.0732C83.0746 43.4029 83.0757 43.4033 83.0769 43.4033C83.0783 43.4033 83.0796 43.4031 83.0808 43.4031C85.1264 43.4045 86.8633 44.7471 87.4599 46.5972H83.078C82.2998 46.5972 81.6688 47.2281 81.6688 48.0065V51.0127C81.6688 53.4474 83.6495 55.4281 86.0842 55.4281H87.6814V61.6285H83.9966C82.7862 58.1332 79.4638 55.6159 75.5623 55.6159C71.6608 55.6159 68.3382 58.1332 67.128 61.6285H66.4494V51.0125C66.4494 50.2343 65.8186 49.6033 65.0402 49.6033C64.262 49.6033 63.631 50.2341 63.631 51.0125V61.6281H34.3936C33.1832 58.1329 29.8607 55.6155 25.9593 55.6155C22.0578 55.6155 18.7352 58.1329 17.5249 61.6281H9.42477C9.37291 61.6281 9.3309 61.5858 9.3309 61.5342V58.434H15.4374C16.2155 58.434 16.8466 57.8031 16.8466 57.0248C16.8466 56.2464 16.2157 55.6155 15.4374 55.6155H7.92272C7.92236 55.6155 7.92219 55.6155 7.92184 55.6155C7.92148 55.6155 7.92131 55.6155 7.92096 55.6155H1.90924C1.13105 55.6155 0.5 56.2464 0.5 57.0248C0.5 57.8031 1.13088 58.434 1.90924 58.434H6.5126V61.5342C6.5126 63.1402 7.819 64.4466 9.42494 64.4466H17.037C17.0366 64.4779 17.0345 64.5092 17.0345 64.5405C17.0345 69.4615 21.0383 73.4652 25.9593 73.4652C30.8803 73.4652 34.884 69.4615 34.884 64.5405C34.884 64.5092 34.8819 64.4779 34.8816 64.4466H66.64C66.6396 64.4779 66.6375 64.5092 66.6375 64.5405C66.6375 69.4615 70.6413 73.4652 75.5623 73.4652C80.4833 73.4652 84.4871 69.4615 84.4871 64.5405C84.4871 64.5092 84.4849 64.4779 84.4846 64.4466H89.0906C89.8688 64.4466 90.4998 63.8157 90.4998 63.0373V48.0061C90.5 44.295 87.7619 41.2117 84.1996 40.6694ZM66.45 25.3655H77.0657C78.7752 25.3655 80.166 26.7563 80.166 28.4658V28.5596H66.45V25.3655ZM66.45 40.5846V31.3779H78.9717L81.2734 40.5846H66.45ZM25.9593 70.6473C22.5922 70.6473 19.8528 67.9081 19.8528 64.5408C19.8528 61.1735 22.5922 58.4343 25.9593 58.4343C29.3264 58.4343 32.0657 61.1735 32.0657 64.5408C32.0657 67.9081 29.3264 70.6473 25.9593 70.6473ZM75.5626 70.6473C72.1955 70.6473 69.4562 67.9081 69.4562 64.5408C69.4562 61.1735 72.1955 58.4343 75.5626 58.4343C78.9297 58.4343 81.6691 61.1735 81.6691 64.5408C81.6691 67.9081 78.9297 70.6473 75.5626 70.6473ZM87.6817 52.6097H86.0846C85.2039 52.6097 84.4874 51.8932 84.4874 51.0125V49.4154H87.6815V52.6097H87.6817Z" fill="#1FA2FF"/>
<path d="M25.9593 61.6287C24.3533 61.6287 23.0469 62.9351 23.0469 64.541C23.0469 66.147 24.3533 67.4534 25.9593 67.4534C27.5652 67.4534 28.8716 66.147 28.8716 64.541C28.8716 62.9351 27.5652 61.6287 25.9593 61.6287Z" fill="#1FA2FF"/>
<path d="M75.5626 61.6287C73.9567 61.6287 72.6503 62.9351 72.6503 64.541C72.6503 66.147 73.9567 67.4534 75.5626 67.4534C77.1686 67.4534 78.475 66.147 78.475 64.541C78.475 62.9351 77.1686 61.6287 75.5626 61.6287Z" fill="#1FA2FF"/>
<path d="M59.0281 55.6155H37.9843C37.2061 55.6155 36.5751 56.2464 36.5751 57.0247C36.5751 57.8031 37.206 58.434 37.9843 58.434H59.0281C59.8063 58.434 60.4374 57.8031 60.4374 57.0247C60.4374 56.2464 59.8065 55.6155 59.0281 55.6155Z" fill="#1FA2FF"/>
<path d="M22.9531 49.6033H4.91544C4.13725 49.6033 3.5062 50.2342 3.5062 51.0125C3.5062 51.7909 4.13707 52.4217 4.91544 52.4217H22.9531C23.7313 52.4217 24.3623 51.7909 24.3623 51.0125C24.3623 50.2342 23.7313 49.6033 22.9531 49.6033Z" fill="#1FA2FF"/>
<path d="M36.4812 24.0508C29.0736 24.0508 23.0469 30.0774 23.0469 37.485C23.0469 44.8926 29.0736 50.9193 36.4812 50.9193C43.8888 50.9193 49.9154 44.8926 49.9154 37.485C49.9154 30.0774 43.8888 24.0508 36.4812 24.0508ZM36.4812 48.101C30.6277 48.101 25.8654 43.3387 25.8654 37.4852C25.8654 31.6317 30.6277 26.8694 36.4812 26.8694C42.3347 26.8694 47.097 31.6317 47.097 37.4852C47.097 43.3387 42.3347 48.101 36.4812 48.101Z" fill="#1FA2FF"/>
<path d="M41.987 40.9976L37.8904 36.9011V31.4722C37.8904 30.694 37.2595 30.063 36.4812 30.063C35.7028 30.063 35.0719 30.6939 35.0719 31.4722V37.4848C35.0719 37.8585 35.2203 38.2168 35.4847 38.4812L39.994 42.9905C40.2691 43.2656 40.6298 43.4032 40.9903 43.4032C41.3508 43.4032 41.7117 43.2657 41.9866 42.9905C42.5373 42.4401 42.5373 41.548 41.987 40.9976Z" fill="#1FA2FF"/>
</g>
<defs>
<clipPath id="clip0">
<rect x="0.5" width="90" height="90" fill="white"/>
</clipPath>
</defs>
</svg>
