<svg width="44" height="45" viewBox="0 0 44 45" fill="none" xmlns="http://www.w3.org/2000/svg">
<path d="M33.4133 20.7604L34 20.662V15.3399H27.4375V17.8946H26.0312V15.3399H10V20.662L10.5867 20.7605C11.6048 20.9313 12.3438 21.8059 12.3438 22.8399C12.3438 23.8739 11.6048 24.7485 10.5867 24.9194L10 25.0178V30.3399H26.0312V27.7852H27.4375V30.3399H34V25.0178L33.4133 24.9193C32.3952 24.7485 31.6562 23.8739 31.6562 22.8399C31.6562 21.8059 32.3952 20.9313 33.4133 20.7604ZM27.4375 26.379H26.0312V23.5665H27.4375V26.379ZM27.4375 22.1133H26.0312V19.3008H27.4375V22.1133Z" fill="white"/>
<circle cx="22" cy="22.8399" r="21" stroke="white" stroke-width="2"/>
</svg>
