<svg width="45" height="45" viewBox="0 0 45 45" fill="none" xmlns="http://www.w3.org/2000/svg">
<g clip-path="url(#clip0)">
<path d="M32.9508 17.0175C32.9221 16.3861 32.9221 15.7834 32.9221 15.1807C32.9221 14.6928 32.549 14.3197 32.0611 14.3197C28.4736 14.3197 25.7472 13.2865 23.4799 11.0767C23.1355 10.761 22.6189 10.761 22.2745 11.0767C20.0073 13.2865 17.2808 14.3197 13.6934 14.3197C13.2055 14.3197 12.8324 14.6928 12.8324 15.1807C12.8324 15.7834 12.8324 16.3861 12.8037 17.0175C12.6889 23.0444 12.5167 31.3099 22.5902 34.7825L22.8772 34.8399L23.1642 34.7825C33.2091 31.3099 33.0656 23.0731 32.9508 17.0175ZM22.1884 25.3691C22.0162 25.5126 21.8153 25.5986 21.5857 25.5986H21.557C21.3274 25.5986 21.0979 25.4839 20.9544 25.3117L18.2853 22.3556L19.5768 21.2076L21.6718 23.5323L26.3212 19.1125L27.4979 20.3753L22.1884 25.3691Z" fill="white"/>
</g>
<circle cx="22.8768" cy="22.8399" r="21" stroke="white" stroke-width="2"/>
<defs>
<clipPath id="clip0">
<rect x="10.8768" y="10.8399" width="24" height="24" fill="white"/>
</clipPath>
</defs>
</svg>
