<svg width="44" height="45" viewBox="0 0 44 45" fill="none" xmlns="http://www.w3.org/2000/svg">
<g clip-path="url(#clip0)">
<path d="M29.27 17.9842L30.707 16.5472L29.293 15.1327L27.7558 16.6699C26.3514 15.6747 24.7127 15.0613 23 14.8899V12.8399H25V10.8399H19V12.8399H21V14.8899C19.2873 15.0613 17.6486 15.6747 16.2443 16.6699L14.707 15.1327L13.293 16.5472L14.73 17.9842C13.3887 19.4044 12.4926 21.1863 12.1526 23.11C11.8126 25.0337 12.0435 27.0149 12.8168 28.8088C13.59 30.6028 14.8718 32.131 16.5038 33.2047C18.1358 34.2784 20.0465 34.8505 22 34.8505C23.9535 34.8505 25.8642 34.2784 27.4962 33.2047C29.1282 32.131 30.41 30.6028 31.1832 28.8088C31.9565 27.0149 32.1874 25.0337 31.8474 23.11C31.5074 21.1863 30.6114 19.4044 29.27 17.9842ZM22 32.8399C20.4178 32.8399 18.871 32.3707 17.5554 31.4917C16.2399 30.6126 15.2145 29.3632 14.609 27.9014C14.0035 26.4396 13.845 24.831 14.1537 23.2792C14.4624 21.7273 15.2243 20.3019 16.3432 19.1831C17.462 18.0642 18.8874 17.3023 20.4393 16.9936C21.9911 16.6849 23.5997 16.8434 25.0615 17.4489C26.5233 18.0544 27.7727 19.0798 28.6518 20.3953C29.5308 21.7109 30 23.2577 30 24.8399C29.9976 26.9609 29.154 28.9944 27.6542 30.4941C26.1545 31.9939 24.121 32.8375 22 32.8399Z" fill="white"/>
<path d="M22 18.8399V24.8399H16C16 26.0266 16.3519 27.1866 17.0112 28.1733C17.6705 29.16 18.6075 29.9291 19.7039 30.3832C20.8003 30.8373 22.0067 30.9561 23.1705 30.7246C24.3344 30.4931 25.4035 29.9217 26.2426 29.0825C27.0818 28.2434 27.6532 27.1743 27.8847 26.0104C28.1162 24.8466 27.9974 23.6402 27.5433 22.5438C27.0892 21.4474 26.3201 20.5104 25.3334 19.8511C24.3467 19.1918 23.1867 18.8399 22 18.8399Z" fill="white"/>
</g>
<circle cx="22" cy="22.8399" r="21" stroke="white" stroke-width="2"/>
<defs>
<clipPath id="clip0">
<rect x="10" y="10.8399" width="24" height="24" fill="white"/>
</clipPath>
</defs>
</svg>
