<svg width="36" height="37" viewBox="0 0 36 37" fill="none" xmlns="http://www.w3.org/2000/svg">
<g clip-path="url(#clip0)">
<path d="M0.000358582 27.1034H1.77745C2.21096 25.0875 3.9932 23.6481 6.05533 23.6481C8.11715 23.6481 9.89938 25.0875 10.3332 27.1034H22.8953V20.6865H0.000358582L0.000358582 27.1034Z" fill="white"/>
<path d="M34.6759 17.2477L29.8138 12.7478L29.8057 12.7397V17.2477H34.6759Z" fill="white"/>
<path d="M29.8057 18.8929C28.8982 18.8903 28.163 18.1554 28.1604 17.2475V11.8099C27.7912 11.7038 27.4091 11.6511 27.0251 11.6534H24.5406V27.1115H25.7171C26.1506 25.0957 27.9329 23.656 29.995 23.656C32.0568 23.656 33.8391 25.0957 34.2729 27.1115H36.0005V20.275C36.0002 19.8068 35.9195 19.3421 35.7617 18.9012L29.8057 18.8929Z" fill="white"/>
<path d="M8.77819 27.9662C8.80679 29.4698 7.61103 30.7119 6.1074 30.7405C4.60346 30.7691 3.36142 29.5733 3.33282 28.0697C3.30422 26.5661 4.50031 25.3237 6.00393 25.2954C7.50755 25.2668 8.74959 26.4626 8.77819 27.9662Z" fill="white"/>
<path d="M32.7179 28.0166C32.7179 29.5206 31.4986 30.7395 29.995 30.7395C28.4911 30.7395 27.2718 29.5206 27.2718 28.0166C27.2718 26.5127 28.4911 25.2935 29.995 25.2935C31.4986 25.2935 32.7179 26.5127 32.7179 28.0166Z" fill="white"/>
<path d="M22.8953 9.50658C22.8911 8.145 21.7886 7.04243 20.4273 7.03857H2.46837C1.10711 7.04243 0.00421484 8.145 0.000358582 9.50658V19.0412H22.8953V9.50658ZM14.8412 11.3492L10.8843 15.3064C10.7294 15.461 10.519 15.5471 10.3001 15.5449C10.0803 15.5442 9.86982 15.4552 9.71621 15.2981L7.495 13.0605C7.17686 12.7378 7.1804 12.2185 7.50304 11.9004C7.82568 11.5825 8.34499 11.5861 8.66313 11.9087L10.3001 13.5624L13.6731 10.1895C13.9944 9.87164 14.5115 9.87197 14.8322 10.1904C15.1529 10.5086 15.1568 11.026 14.8412 11.3492Z" fill="white"/>
</g>
<defs>
<clipPath id="clip0">
<rect x="0.000366211" y="0.901367" width="36" height="36" fill="white"/>
</clipPath>
</defs>
</svg>
