<svg width="36" height="37" viewBox="0 0 36 37" fill="none" xmlns="http://www.w3.org/2000/svg">
<g clip-path="url(#clip0)">
<path d="M0 26.7404H1.77709C2.2106 24.7245 3.99284 23.2852 6.05497 23.2852C8.11679 23.2852 9.89902 24.7245 10.3329 26.7404H22.8949V20.3236H0L0 26.7404Z" fill="white"/>
<path d="M34.6755 16.8848L29.8134 12.3848L29.8054 12.3768V16.8848H34.6755Z" fill="white"/>
<path d="M29.8054 18.5301C28.8979 18.5275 28.1626 17.7926 28.16 16.8848V11.4471C27.7908 11.3411 27.4087 11.2884 27.0247 11.2906H24.5403V26.7488H25.7168C26.1503 24.7329 27.9325 23.2932 29.9947 23.2932C32.0565 23.2932 33.8387 24.7329 34.2725 26.7488H36.0001V19.9122C35.9998 19.444 35.9192 18.9794 35.7614 18.5385L29.8054 18.5301Z" fill="white"/>
<path d="M8.77784 27.6032C8.80644 29.1069 7.61067 30.3489 6.10705 30.3775C4.60311 30.4061 3.36107 29.2103 3.33247 27.7067C3.30387 26.2031 4.49996 24.9607 6.00358 24.9325C7.5072 24.9039 8.74924 26.0996 8.77784 27.6032Z" fill="white"/>
<path d="M32.7175 27.6537C32.7175 29.1576 31.4983 30.3765 29.9947 30.3765C28.4907 30.3765 27.2715 29.1576 27.2715 27.6537C27.2715 26.1497 28.4907 24.9305 29.9947 24.9305C31.4983 24.9305 32.7175 26.1497 32.7175 27.6537Z" fill="white"/>
<path d="M22.8949 9.14364C22.8908 7.78206 21.7882 6.67948 20.4269 6.67563H2.46801C1.10675 6.67948 0.00385626 7.78206 0 9.14364V18.6783H22.8949V9.14364ZM14.8408 10.9863L10.884 14.9435C10.7291 15.098 10.5186 15.1842 10.2998 15.1819C10.0799 15.1813 9.86946 15.0923 9.71585 14.9351L7.49465 12.6975C7.1765 12.3749 7.18004 11.8556 7.50268 11.5374C7.82532 11.2196 8.34463 11.2231 8.66277 11.5458L10.2998 13.1995L13.6727 9.82652C13.9941 9.5087 14.5111 9.50902 14.8318 9.82748C15.1525 10.1456 15.1564 10.663 14.8408 10.9863Z" fill="white"/>
</g>
<defs>
<clipPath id="clip0">
<rect y="0.538452" width="36" height="36" fill="white"/>
</clipPath>
</defs>
</svg>
