<svg width="91" height="90" viewBox="0 0 91 90" fill="none" xmlns="http://www.w3.org/2000/svg">
<path d="M62.7859 6.0126H51.9385C51.3489 4.26709 49.6969 3.00639 47.7549 3.00639H44.6705C43.2779 1.13396 41.0726 0 38.7361 0C36.3996 0 34.1941 1.13396 32.8017 3.00621H29.7173C27.7753 3.00621 26.1233 4.26691 25.5337 6.01242H14.6857C11.4222 6.01242 8.76715 8.6676 8.76715 11.931V75.0625C8.76715 78.326 11.4223 80.981 14.6857 80.981H44.7483C45.5265 80.981 46.1576 80.3501 46.1576 79.5718C46.1576 78.7936 45.5267 78.1625 44.7483 78.1625H14.6857C12.9762 78.1625 11.5855 76.7718 11.5855 75.0623V11.9312C11.5855 10.2217 12.9762 8.8309 14.6857 8.8309H25.3018V13.4343C25.3018 14.2124 25.9327 14.8435 26.7111 14.8435H50.7611C51.5393 14.8435 52.1703 14.2126 52.1703 13.4343V8.8309H62.7859C64.4954 8.8309 65.8862 10.2217 65.8862 11.9312V52.5157C65.8862 53.2939 66.5171 53.9249 67.2954 53.9249C68.0736 53.9249 68.7047 53.2941 68.7047 52.5157V11.9312C68.7045 8.6676 66.0495 6.0126 62.7859 6.0126ZM49.352 12.025H28.1203V7.42711C28.1203 7.42518 28.1205 7.42359 28.1205 7.42166C28.1205 7.42078 28.1203 7.41973 28.1203 7.41902C28.1219 6.53941 28.8375 5.82451 29.7173 5.82451H33.5574C34.0591 5.82451 34.523 5.55785 34.7754 5.12402C35.6158 3.68033 37.0964 2.8183 38.7361 2.8183C40.3758 2.8183 41.8564 3.68033 42.6968 5.12402C42.949 5.55768 43.4131 5.82451 43.9148 5.82451H47.7549C48.6336 5.82451 49.3487 6.53801 49.3519 7.41621C49.3519 7.41814 49.3517 7.41973 49.3517 7.42166C49.3517 7.42535 49.3522 7.42887 49.3522 7.43256V12.025H49.352Z" fill="#1FA2FF"/>
<path d="M44.748 72.1507H17.5981V14.8439H20.6989C21.4771 14.8439 22.1081 14.213 22.1081 13.4346C22.1081 12.6563 21.4772 12.0254 20.6989 12.0254H16.189C15.4109 12.0254 14.7798 12.6563 14.7798 13.4346V73.5599C14.7798 74.3381 15.4107 74.9691 16.189 74.9691H44.7482C45.5264 74.9691 46.1575 74.3383 46.1575 73.5599C46.1573 72.7815 45.5264 72.1507 44.748 72.1507Z" fill="#1FA2FF"/>
<path d="M61.2829 12.0254H56.7736C55.9954 12.0254 55.3643 12.6563 55.3643 13.4346C55.3643 14.213 55.9952 14.8439 56.7736 14.8439H59.8738V52.5157C59.8738 53.2939 60.5047 53.925 61.283 53.925C62.0614 53.925 62.6923 53.2941 62.6923 52.5157V13.4346C62.6921 12.6564 62.0611 12.0254 61.2829 12.0254Z" fill="#1FA2FF"/>
<path d="M65.7922 57.1189C56.7268 57.1189 49.3517 64.4939 49.3517 73.5593C49.3517 82.6247 56.727 89.9997 65.7922 89.9997C74.8574 89.9997 82.2326 82.6247 82.2326 73.5593C82.2326 64.4939 74.8576 57.1189 65.7922 57.1189ZM65.7922 87.1814C58.2809 87.1814 52.17 81.0706 52.17 73.5593C52.17 66.048 58.2809 59.9372 65.7922 59.9372C73.3035 59.9372 79.4143 66.048 79.4143 73.5593C79.4143 81.0706 73.3037 87.1814 65.7922 87.1814Z" fill="#1FA2FF"/>
<path d="M38.7512 6.01221H38.7361C37.9579 6.01221 37.3344 6.64309 37.3344 7.42144C37.3344 8.19963 37.9727 8.83068 38.7511 8.83068C39.5292 8.83068 40.1603 8.1998 40.1603 7.42144C40.1605 6.64309 39.5296 6.01221 38.7512 6.01221Z" fill="#1FA2FF"/>
<path d="M74.3044 68.0536C73.7542 67.5033 72.8617 67.5033 72.3115 68.0536L62.786 77.5792L57.7699 72.5631C57.2195 72.0127 56.3272 72.0127 55.7771 72.5631C55.2267 73.1135 55.2267 74.0057 55.7771 74.5559L61.7896 80.5685C62.0647 80.8436 62.4254 80.9812 62.786 80.9812C63.1465 80.9812 63.5072 80.8438 63.7823 80.5685L74.3042 70.0466C74.8546 69.4961 74.8546 68.6038 74.3044 68.0536Z" fill="#1FA2FF"/>
<path d="M32.6295 31.1674V25.483C34.615 25.8229 35.8237 26.8344 35.8237 27.5729C35.8237 28.351 36.4545 28.9821 37.2329 28.9821C38.0113 28.9821 38.6421 28.3512 38.6421 27.5729C38.6421 25.0819 36.0947 23.0692 32.6295 22.6348V22.4527C32.6295 21.6745 31.9987 21.0435 31.2203 21.0435C30.4419 21.0435 29.8111 21.6743 29.8111 22.4527V22.6348C26.3459 23.069 23.7985 25.0817 23.7985 27.5729C23.7985 31.1015 27.1082 32.4575 29.8111 33.2789V38.9633C27.8256 38.6233 26.6169 37.6119 26.6169 36.8734C26.6169 36.0953 25.9861 35.4642 25.2077 35.4642C24.4293 35.4642 23.7985 36.0951 23.7985 36.8734C23.7985 39.3644 26.3459 41.3771 29.8111 41.8115V41.9936C29.8111 42.7718 30.4419 43.4028 31.2203 43.4028C31.9987 43.4028 32.6295 42.7719 32.6295 41.9936V41.8115C36.0947 41.3773 38.6421 39.3646 38.6421 36.8734C38.642 33.345 35.3323 31.9888 32.6295 31.1674ZM29.8111 30.3064C27.4338 29.478 26.6169 28.7309 26.6169 27.5729C26.6169 27.1272 27.01 26.6351 27.6952 26.2228C28.2742 25.8745 29.0088 25.6226 29.8111 25.4849V30.3064ZM34.7454 38.2234C34.1664 38.5718 33.4318 38.8237 32.6295 38.9614V34.1399C35.0068 34.9683 35.8237 35.7154 35.8237 36.8734C35.8237 37.3192 35.4306 37.8112 34.7454 38.2234Z" fill="#1FA2FF"/>
<path d="M52.2641 24.0508H44.7484C43.9702 24.0508 43.3391 24.6817 43.3391 25.46C43.3391 26.2384 43.97 26.8693 44.7484 26.8693H52.2641C53.0423 26.8693 53.6733 26.2384 53.6733 25.46C53.6733 24.6817 53.0424 24.0508 52.2641 24.0508Z" fill="#1FA2FF"/>
<path d="M49.2577 30.063H44.7485C43.9703 30.063 43.3392 30.6939 43.3392 31.4722C43.3392 32.2506 43.9701 32.8815 44.7485 32.8815H49.2577C50.0359 32.8815 50.667 32.2506 50.667 31.4722C50.667 30.6939 50.0359 30.063 49.2577 30.063Z" fill="#1FA2FF"/>
<path d="M52.2641 36.0754H44.7484C43.9702 36.0754 43.3391 36.7063 43.3391 37.4847C43.3391 38.263 43.97 38.8939 44.7484 38.8939H52.2641C53.0423 38.8939 53.6733 38.263 53.6733 37.4847C53.6733 36.7063 53.0424 36.0754 52.2641 36.0754Z" fill="#1FA2FF"/>
<path d="M28.214 49.6033H25.2078C24.4296 49.6033 23.7986 50.2342 23.7986 51.0125C23.7986 51.7909 24.4294 52.4217 25.2078 52.4217H28.214C28.9922 52.4217 29.6233 51.7909 29.6233 51.0125C29.6233 50.2342 28.9922 49.6033 28.214 49.6033Z" fill="#1FA2FF"/>
<path d="M28.214 61.6287H25.2078C24.4296 61.6287 23.7986 62.2595 23.7986 63.0379C23.7986 63.8163 24.4294 64.4471 25.2078 64.4471H28.214C28.9922 64.4471 29.6233 63.8163 29.6233 63.0379C29.6233 62.2595 28.9922 61.6287 28.214 61.6287Z" fill="#1FA2FF"/>
<path d="M28.214 55.6155H25.2078C24.4296 55.6155 23.7986 56.2464 23.7986 57.0247C23.7986 57.8031 24.4294 58.434 25.2078 58.434H28.214C28.9922 58.434 29.6233 57.8031 29.6233 57.0247C29.6233 56.2464 28.9922 55.6155 28.214 55.6155Z" fill="#1FA2FF"/>
<path d="M52.2641 49.6033H34.2264C33.4483 49.6033 32.8172 50.2342 32.8172 51.0125C32.8172 51.7909 33.4481 52.4217 34.2264 52.4217H52.2641C53.0422 52.4217 53.6733 51.7909 53.6733 51.0125C53.6733 50.2342 53.0424 49.6033 52.2641 49.6033Z" fill="#1FA2FF"/>
<path d="M47.7547 61.6287H34.2266C33.4484 61.6287 32.8174 62.2595 32.8174 63.0379C32.8174 63.8163 33.4483 64.4471 34.2266 64.4471H47.7547C48.5329 64.4471 49.164 63.8163 49.164 63.0379C49.164 62.2595 48.5329 61.6287 47.7547 61.6287Z" fill="#1FA2FF"/>
<path d="M52.2641 55.6155H34.2264C33.4483 55.6155 32.8172 56.2464 32.8172 57.0247C32.8172 57.8031 33.4481 58.434 34.2264 58.434H52.2641C53.0422 58.434 53.6733 57.8031 53.6733 57.0247C53.6733 56.2464 53.0424 55.6155 52.2641 55.6155Z" fill="#1FA2FF"/>
</svg>
