<svg width="19" height="19" viewBox="0 0 19 19" fill="none" xmlns="http://www.w3.org/2000/svg">
<g clip-path="url(#clip0)">
<path d="M13.8254 12.4074C13.2374 11.8268 12.5032 11.8268 11.9189 12.4074C11.4732 12.8494 11.0274 13.2913 10.5892 13.7408C10.4693 13.8644 10.3682 13.8906 10.2221 13.8082C9.93372 13.6509 9.62658 13.5236 9.34941 13.3513C8.05716 12.5385 6.97468 11.4934 6.01579 10.3173C5.5401 9.73299 5.11684 9.10747 4.82094 8.40329C4.76101 8.26096 4.77224 8.16732 4.88836 8.0512C5.33409 7.62045 5.76858 7.17847 6.20682 6.73648C6.81736 6.1222 6.81736 5.40304 6.20308 4.78501C5.85473 4.43292 5.50639 4.08832 5.15804 3.73623C4.79846 3.37665 4.44263 3.01333 4.0793 2.65749C3.49124 2.08441 2.7571 2.08441 2.17278 2.66124C1.7233 3.10322 1.29255 3.55644 0.835588 3.99094C0.412332 4.39172 0.198831 4.8824 0.153883 5.45548C0.0827163 6.38814 0.3112 7.26836 0.633324 8.12611C1.29255 9.90154 2.29638 11.4785 3.51371 12.9243C5.15804 14.8795 7.12076 16.4264 9.41683 17.5426C10.4506 18.0445 11.5219 18.4303 12.6868 18.494C13.4883 18.539 14.185 18.3367 14.7431 17.7112C15.1252 17.2842 15.5559 16.8946 15.9604 16.4864C16.5597 15.8796 16.5635 15.1454 15.9679 14.5461C15.2563 13.8307 14.5408 13.119 13.8254 12.4074Z" fill="#1FA2FF"/>
<path d="M13.11 9.42208L14.4921 9.18611C14.2749 7.91634 13.6756 6.76643 12.7654 5.8525C11.8028 4.88987 10.5855 4.28308 9.24452 4.09579L9.04974 5.48542C10.0873 5.6315 11.0312 6.09971 11.7766 6.84509C12.4807 7.54927 12.9415 8.44073 13.11 9.42208Z" fill="#1FA2FF"/>
<path d="M15.2713 3.4141C13.6756 1.81846 11.6567 0.810887 9.42808 0.5L9.23331 1.88963C11.1586 2.15931 12.904 3.03205 14.2824 4.40669C15.5896 5.71392 16.4474 7.36574 16.7583 9.18237L18.1404 8.9464C17.7771 6.84135 16.7845 4.93108 15.2713 3.4141Z" fill="#1FA2FF"/>
</g>
<defs>
<clipPath id="clip0">
<rect x="0.140625" y="0.5" width="18" height="18" fill="white"/>
</clipPath>
</defs>
</svg>
