<svg width="90" height="91" viewBox="0 0 90 91" fill="none" xmlns="http://www.w3.org/2000/svg">
<g clip-path="url(#clip0)">
<path d="M83.6996 41.0392L81.3689 31.7167C82.0061 31.5813 82.4842 31.016 82.4842 30.3387V28.8356C82.4842 25.5721 79.8291 22.9171 76.5657 22.9171H65.9499V19.8166C65.9499 18.2107 64.6435 16.9043 63.0376 16.9043H8.9247C7.31877 16.9043 6.01236 18.2107 6.01236 19.8166V45.37C6.01236 46.1481 6.64324 46.7792 7.4216 46.7792C8.19978 46.7792 8.83084 46.1483 8.83084 45.37V19.8166C8.83084 19.7648 8.87285 19.7228 8.9247 19.7228H63.0374C63.0892 19.7228 63.1312 19.7648 63.1312 19.8166V45.3703C63.1312 46.1485 63.7621 46.7796 64.5405 46.7796C65.3187 46.7796 65.9497 46.1487 65.9497 45.3703V43.7728H82.5732C82.5746 43.7728 82.5756 43.7732 82.5769 43.7732C82.5783 43.7732 82.5795 43.773 82.5807 43.773C84.6263 43.7744 86.3632 45.117 86.9598 46.9671H82.5779C81.7997 46.9671 81.1687 47.598 81.1687 48.3763V51.3826C81.1687 53.8173 83.1494 55.798 85.5841 55.798H87.1813V61.9983H83.4966C82.2861 58.5033 78.9637 55.9857 75.0622 55.9857C71.1608 55.9857 67.8381 58.5033 66.6279 61.9983H65.9494V51.3824C65.9494 50.6042 65.3185 49.9731 64.5401 49.9731C63.7619 49.9731 63.1309 50.604 63.1309 51.3824V61.998H33.8936C32.6831 58.5029 29.3607 55.9854 25.4592 55.9854C21.5578 55.9854 18.2351 58.5029 17.0249 61.998H8.9247C8.87285 61.998 8.83084 61.956 8.83084 61.9041V58.8039H14.9373C15.7155 58.8039 16.3465 58.173 16.3465 57.3946C16.3465 56.6163 15.7157 55.9854 14.9373 55.9854H1.40918C0.630994 55.9854 -6.10352e-05 56.6163 -6.10352e-05 57.3946C-6.10352e-05 58.173 0.630818 58.8039 1.40918 58.8039H6.01254V61.9041C6.01254 63.5101 7.31894 64.8165 8.92488 64.8165H16.5369C16.5366 64.8478 16.5345 64.8789 16.5345 64.9103C16.5345 69.8315 20.5382 73.8351 25.4592 73.8351C30.3802 73.8351 34.384 69.8315 34.384 64.9103C34.384 64.8787 34.3819 64.8478 34.3815 64.8165H66.1399C66.1396 64.8478 66.1375 64.8789 66.1375 64.9103C66.1375 69.8315 70.1412 73.8351 75.0622 73.8351C79.9832 73.8351 83.987 69.8315 83.987 64.9103C83.987 64.8787 83.9849 64.8478 83.9845 64.8165H88.5905C89.3687 64.8165 89.9998 64.1856 89.9998 63.4072V48.376C89.9999 44.6649 87.2618 41.5815 83.6996 41.0392ZM65.9499 25.7354H76.5657C78.2752 25.7354 79.6659 27.1262 79.6659 28.8356V28.9295H65.9499V25.7354ZM65.9499 40.9545V31.7478H78.4717L80.7734 40.9545H65.9499ZM25.4592 71.0171C22.0921 71.0171 19.3528 68.278 19.3528 64.9107C19.3528 61.5434 22.0921 58.8042 25.4592 58.8042C28.8263 58.8042 31.5657 61.5434 31.5657 64.9107C31.5657 68.278 28.8263 71.0171 25.4592 71.0171ZM75.0626 71.0171C71.6955 71.0171 68.9561 68.278 68.9561 64.9107C68.9561 61.5434 71.6955 58.8042 75.0626 58.8042C78.4297 58.8042 81.169 61.5434 81.169 64.9107C81.169 68.278 78.4297 71.0171 75.0626 71.0171ZM87.1816 52.9795H85.5845C84.7038 52.9795 83.9873 52.263 83.9873 51.3824V49.7852H87.1815V52.9795H87.1816Z" fill="#1FA2FF"/>
<path d="M25.4593 61.9985C23.8534 61.9985 22.547 63.3049 22.547 64.9109C22.547 66.5168 23.8534 67.8232 25.4593 67.8232C27.0652 67.8232 28.3717 66.5168 28.3717 64.9109C28.3717 63.3049 27.0652 61.9985 25.4593 61.9985Z" fill="#1FA2FF"/>
<path d="M75.0626 61.9985C73.4566 61.9985 72.1502 63.3049 72.1502 64.9109C72.1502 66.5168 73.4566 67.8232 75.0626 67.8232C76.6685 67.8232 77.9749 66.5168 77.9749 64.9109C77.9749 63.3049 76.6685 61.9985 75.0626 61.9985Z" fill="#1FA2FF"/>
<path d="M58.5281 55.9854H37.4843C36.7061 55.9854 36.075 56.6162 36.075 57.3946C36.075 58.173 36.7059 58.8038 37.4843 58.8038H58.5281C59.3062 58.8038 59.9373 58.173 59.9373 57.3946C59.9373 56.6162 59.3064 55.9854 58.5281 55.9854Z" fill="#1FA2FF"/>
<path d="M22.453 49.9731H4.41543C3.63725 49.9731 3.0062 50.604 3.0062 51.3824C3.0062 52.1607 3.63707 52.7916 4.41543 52.7916H22.453C23.2312 52.7916 23.8623 52.1607 23.8623 51.3824C23.8623 50.604 23.2312 49.9731 22.453 49.9731Z" fill="#1FA2FF"/>
<path d="M49.0027 30.8448C48.4525 30.2946 47.5601 30.2946 47.0099 30.8449L34.4781 43.3765L27.9588 36.8573C27.4085 36.307 26.5162 36.307 25.966 36.8573C25.4156 37.4077 25.4156 38.2998 25.966 38.8502L33.4817 46.3659C33.7568 46.6411 34.1175 46.7786 34.4781 46.7786C34.8386 46.7786 35.1995 46.6411 35.4744 46.3659L49.0025 32.8378C49.5529 32.2872 49.5529 31.3951 49.0027 30.8448Z" fill="#1FA2FF"/>
</g>
<defs>
<clipPath id="clip0">
<rect x="-6.10352e-05" y="0.369873" width="90" height="90" fill="white"/>
</clipPath>
</defs>
</svg>
