<svg width="91" height="91" viewBox="0 0 91 91" fill="none" xmlns="http://www.w3.org/2000/svg">
<g clip-path="url(#clip0)">
<path d="M62.786 6.38247H51.9385C51.349 4.63696 49.697 3.37626 47.7549 3.37626H44.6705C43.278 1.50384 41.0726 0.369873 38.7361 0.369873C36.3996 0.369873 34.1941 1.50384 32.8018 3.37608H29.7173C27.7753 3.37608 26.1233 4.63679 25.5337 6.3823H14.6857C11.4222 6.3823 8.76718 9.03747 8.76718 12.3009V75.4323C8.76718 78.6959 11.4224 81.3509 14.6857 81.3509H44.7484C45.5266 81.3509 46.1576 80.72 46.1576 79.9417C46.1576 79.1635 45.5267 78.5324 44.7484 78.5324H14.6857C12.9763 78.5324 11.5855 77.1416 11.5855 75.4322V12.301C11.5855 10.5916 12.9763 9.20077 14.6857 9.20077H25.3019V13.8041C25.3019 14.5823 25.9327 15.2134 26.7111 15.2134H50.7611C51.5393 15.2134 52.1704 14.5825 52.1704 13.8041V9.20077H62.786C64.4955 9.20077 65.8862 10.5916 65.8862 12.301V52.8856C65.8862 53.6638 66.5171 54.2948 67.2955 54.2948C68.0737 54.2948 68.7047 53.6639 68.7047 52.8856V12.301C68.7045 9.03747 66.0495 6.38247 62.786 6.38247ZM49.3521 12.3949H28.1203V7.79698C28.1203 7.79505 28.1205 7.79347 28.1205 7.79153C28.1205 7.79066 28.1203 7.7896 28.1203 7.7889C28.1219 6.90929 28.8375 6.19439 29.7173 6.19439H33.5574C34.0591 6.19439 34.523 5.92772 34.7754 5.4939C35.6158 4.05021 37.0964 3.18817 38.7361 3.18817C40.3758 3.18817 41.8564 4.05021 42.6968 5.4939C42.9491 5.92755 43.4131 6.19439 43.9148 6.19439H47.7549C48.6337 6.19439 49.3487 6.90788 49.3519 7.78608C49.3519 7.78802 49.3517 7.7896 49.3517 7.79153C49.3517 7.79523 49.3523 7.79874 49.3523 7.80243V12.3949H49.3521Z" fill="#1FA2FF"/>
<path d="M44.7479 72.5205H17.598V15.2137H20.6988C21.477 15.2137 22.108 14.5829 22.108 13.8045C22.108 13.0261 21.4771 12.3953 20.6988 12.3953H16.1889C15.4107 12.3953 14.7797 13.0261 14.7797 13.8045V73.9298C14.7797 74.708 15.4106 75.339 16.1889 75.339H44.7481C45.5263 75.339 46.1574 74.7081 46.1574 73.9298C46.1572 73.1514 45.5263 72.5205 44.7479 72.5205Z" fill="#1FA2FF"/>
<path d="M61.2829 12.3953H56.7736C55.9954 12.3953 55.3643 13.0261 55.3643 13.8045C55.3643 14.5829 55.9952 15.2137 56.7736 15.2137H59.8738V52.8856C59.8738 53.6638 60.5047 54.2948 61.2831 54.2948C62.0614 54.2948 62.6923 53.664 62.6923 52.8856V13.8045C62.6921 13.0263 62.0611 12.3953 61.2829 12.3953Z" fill="#1FA2FF"/>
<path d="M52.2641 30.4329H37.2328C36.4546 30.4329 35.8236 31.0637 35.8236 31.8421C35.8236 32.6205 36.4545 33.2513 37.2328 33.2513H52.2641C53.0422 33.2513 53.6733 32.6205 53.6733 31.8421C53.6733 31.0637 53.0424 30.4329 52.2641 30.4329Z" fill="#1FA2FF"/>
<path d="M47.7547 24.4207H37.2328C36.4546 24.4207 35.8236 25.0515 35.8236 25.8299C35.8236 26.6083 36.4545 27.2391 37.2328 27.2391H47.7547C48.5329 27.2391 49.164 26.6083 49.164 25.8299C49.164 25.0515 48.5329 24.4207 47.7547 24.4207Z" fill="#1FA2FF"/>
<path d="M73.0516 79.1961L67.2014 73.3459V63.9087C67.2014 63.1306 66.5706 62.4995 65.7922 62.4995C65.014 62.4995 64.383 63.1304 64.383 63.9087V73.9295C64.383 74.3032 64.5313 74.6618 64.7957 74.9258L71.0586 81.1888C71.3337 81.4639 71.6944 81.6015 72.0549 81.6015C72.4155 81.6015 72.7762 81.464 73.0513 81.1888C73.602 80.6386 73.602 79.7463 73.0516 79.1961Z" fill="#1FA2FF"/>
<path d="M65.7921 57.4888C56.7267 57.4888 49.3516 64.8638 49.3516 73.9292C49.3516 82.9945 56.7269 90.3696 65.7921 90.3696C74.8573 90.3696 82.2326 82.9945 82.2326 73.9292C82.2326 64.8638 74.8575 57.4888 65.7921 57.4888ZM65.7921 87.5513C58.2808 87.5513 52.1699 81.4405 52.1699 73.9292C52.1699 66.4179 58.2808 60.3071 65.7921 60.3071C73.3034 60.3071 79.4143 66.4179 79.4143 73.9292C79.4143 81.4405 73.3036 87.5513 65.7921 87.5513Z" fill="#1FA2FF"/>
<path d="M31.5236 29.1193C30.8502 28.7296 29.988 28.9595 29.5981 29.6332C29.3126 30.1265 28.7825 30.4327 28.2138 30.4327C27.3332 30.4327 26.6167 29.7162 26.6167 28.8355C26.6167 27.9549 27.3332 27.2384 28.2138 27.2384C28.992 27.2384 29.6231 26.6075 29.6231 25.8292C29.6231 25.0508 28.9922 24.4199 28.2138 24.4199C25.7791 24.4199 23.7984 26.4006 23.7984 28.8354C23.7984 31.2701 25.7791 33.2508 28.2138 33.2508C29.7849 33.2508 31.2501 32.4053 32.0376 31.0442C32.4275 30.371 32.1972 29.509 31.5236 29.1193Z" fill="#1FA2FF"/>
<path d="M52.2641 45.4641H37.2328C36.4546 45.4641 35.8236 46.095 35.8236 46.8734C35.8236 47.6517 36.4545 48.2826 37.2328 48.2826H52.2641C53.0422 48.2826 53.6733 47.6517 53.6733 46.8734C53.6733 46.095 53.0424 45.4641 52.2641 45.4641Z" fill="#1FA2FF"/>
<path d="M47.7547 39.4509H37.2328C36.4546 39.4509 35.8236 40.0818 35.8236 40.8602C35.8236 41.6385 36.4545 42.2694 37.2328 42.2694H47.7547C48.5329 42.2694 49.164 41.6385 49.164 40.8602C49.164 40.0818 48.5329 39.4509 47.7547 39.4509Z" fill="#1FA2FF"/>
<path d="M31.5236 44.1499C30.8502 43.7601 29.988 43.99 29.5981 44.6639C29.3126 45.1572 28.7825 45.4634 28.2138 45.4634C27.3332 45.4634 26.6167 44.7469 26.6167 43.8662C26.6167 42.9856 27.3332 42.2694 28.2138 42.2694C28.992 42.2694 29.6231 41.6385 29.6231 40.8602C29.6231 40.0818 28.9922 39.4509 28.2138 39.4509C25.7791 39.4509 23.7984 41.4316 23.7984 43.8664C23.7984 46.3012 25.7791 48.2819 28.2138 48.2819C29.785 48.2819 31.2501 47.4364 32.0376 46.0753C32.4275 45.4019 32.1974 44.5398 31.5236 44.1499Z" fill="#1FA2FF"/>
<path d="M47.7547 60.4954H37.2328C36.4546 60.4954 35.8236 61.1262 35.8236 61.9046C35.8236 62.683 36.4545 63.3138 37.2328 63.3138H47.7547C48.5329 63.3138 49.164 62.683 49.164 61.9046C49.164 61.1262 48.5329 60.4954 47.7547 60.4954Z" fill="#1FA2FF"/>
<path d="M47.7547 54.4822H37.2328C36.4546 54.4822 35.8236 55.1131 35.8236 55.8914C35.8236 56.6698 36.4545 57.3007 37.2328 57.3007H47.7547C48.5329 57.3007 49.164 56.6698 49.164 55.8914C49.164 55.1131 48.5329 54.4822 47.7547 54.4822Z" fill="#1FA2FF"/>
<path d="M31.5236 59.1815C30.8502 58.7915 29.988 59.0217 29.5981 59.6955C29.3126 60.1887 28.7825 60.4949 28.2138 60.4949C27.3332 60.4949 26.6167 59.7785 26.6167 58.8978C26.6167 58.0171 27.3332 57.3007 28.2138 57.3007C28.992 57.3007 29.6231 56.6698 29.6231 55.8914C29.6231 55.1131 28.9922 54.4822 28.2138 54.4822C25.7791 54.4822 23.7984 56.4629 23.7984 58.8976C23.7984 61.3324 25.7791 63.3132 28.2138 63.3132C29.785 63.3132 31.2501 62.4677 32.0376 61.1067C32.4275 60.4334 32.1974 59.5714 31.5236 59.1815Z" fill="#1FA2FF"/>
<path d="M38.7512 6.38208H38.7361C37.9579 6.38208 37.3344 7.01296 37.3344 7.79132C37.3344 8.5695 37.9727 9.20056 38.751 9.20056C39.5292 9.20056 40.1603 8.56968 40.1603 7.79132C40.1604 7.01296 39.5296 6.38208 38.7512 6.38208Z" fill="#1FA2FF"/>
</g>
<defs>
<clipPath id="clip0">
<rect x="0.5" y="0.369873" width="90" height="90" fill="white"/>
</clipPath>
</defs>
</svg>
