<svg width="90" height="91" viewBox="0 0 90 91" fill="none" xmlns="http://www.w3.org/2000/svg">
<path d="M88.5363 43.1869C87.6006 42.0717 86.3242 41.347 84.861 41.0761L84.1737 31.7481C84.8517 31.7416 85.4299 31.2532 85.548 30.584L85.8131 29.0809C86.0971 27.4697 85.7009 25.8793 84.7259 24.7175C83.752 23.557 82.3263 22.9177 80.711 22.9177H70.3656L70.8692 20.0621C71.0121 19.2511 70.805 18.4412 70.3013 17.8408C69.8024 17.2463 69.0523 16.9053 68.2434 16.9053H17.3187C15.8128 16.9053 14.4265 18.0769 14.1627 19.5729L9.65725 45.1257C9.52225 45.8921 10.0339 46.623 10.8004 46.758C10.883 46.7726 10.9652 46.7796 11.0466 46.7796C11.7176 46.7796 12.3122 46.2985 12.4327 45.6149L16.9383 20.0621C16.968 19.8939 17.1846 19.7234 17.3185 19.7234L68.0669 19.7236L63.5878 45.1257C63.4526 45.8921 63.9643 46.623 64.7309 46.758C65.4964 46.8928 66.2282 46.3813 66.3632 45.6149L66.6881 43.7729H83.5395C83.54 43.7729 83.5407 43.7729 83.5414 43.7729C83.5421 43.7729 83.5429 43.7729 83.5434 43.7729C84.7081 43.7731 85.7145 44.2081 86.3773 44.9979C86.8335 45.5416 87.0996 46.2184 87.1636 46.967H82.4827C81.7987 46.967 81.2138 47.458 81.0949 48.1316L80.5649 51.1378C80.3514 52.3489 80.653 53.549 81.3923 54.4302C82.1215 55.2994 83.2284 55.7978 84.4288 55.7978H85.7556L84.6622 61.9981H80.9418C80.697 60.7579 80.161 59.6173 79.3487 58.6496C77.9075 56.9317 75.7865 55.9858 73.3771 55.9858C69.5136 55.9858 65.7861 58.5136 64.0412 61.9983H63.4746L65.3033 51.6273C65.4383 50.8609 64.9267 50.13 64.1602 49.995C63.3941 49.8597 62.6628 50.3716 62.5279 51.1381L60.6129 61.9984H34.5266C34.2817 60.7583 33.7458 59.6178 32.9335 58.65C31.4921 56.9321 29.3713 55.9862 26.9617 55.9862C23.0982 55.9862 19.3707 58.5139 17.6258 61.9986L9.54369 61.9984L10.1069 58.8045H16.4401C17.2183 58.8045 17.8494 58.1736 17.8494 57.3952C17.8494 56.6171 17.2185 55.986 16.4401 55.986H1.40924C0.631055 55.986 0 56.6169 0 57.3952C0 58.1734 0.630879 58.8045 1.40924 58.8045H7.24535L6.74174 61.6601C6.59883 62.4711 6.8059 63.2809 7.30969 63.8814C7.80855 64.4759 8.55861 64.8169 9.36756 64.8169H16.7106C16.3287 67.2074 16.9028 69.4593 18.3398 71.1716C19.7812 72.8895 21.902 73.8354 24.3116 73.8354C29.1076 73.8354 33.696 69.9416 34.54 65.1553C34.5598 65.0419 34.5755 64.9292 34.5913 64.8167H63.126C62.7439 67.207 63.318 69.4589 64.7552 71.1714C66.1966 72.8893 68.3174 73.8352 70.727 73.8352C75.523 73.8352 80.1114 69.9415 80.9554 65.1551C80.9752 65.0417 80.9909 64.9291 81.0067 64.8166H85.8451C86.529 64.8166 87.114 64.3256 87.2328 63.652L89.8833 48.621C90.2429 46.5807 89.7646 44.6508 88.5363 43.1869ZM67.1853 40.9551L68.8087 31.7486H81.3482L82.0266 40.9551H67.1853ZM83.0375 28.5917L82.9777 28.9303H69.3055L69.8687 25.7362H80.711C81.4787 25.7362 82.1378 26.0178 82.5667 26.5291C83.0115 27.0589 83.1788 27.7912 83.0375 28.5917ZM31.7646 64.6663C31.1472 68.1684 27.8037 71.0172 24.3116 71.0172C22.7496 71.0172 21.3954 70.4287 20.4987 69.3603C19.5762 68.2608 19.2247 66.7677 19.5089 65.1558C20.1264 61.6537 23.4698 58.8048 26.9619 58.8048C28.5238 58.8048 29.8781 59.3934 30.7747 60.4619C31.6972 61.5611 32.0488 63.0544 31.7646 64.6663ZM78.1798 64.6663C77.5622 68.1684 74.2189 71.0172 70.7268 71.0172C69.1648 71.0172 67.8106 70.4287 66.9139 69.3602C65.9914 68.2606 65.6399 66.7676 65.9241 65.1556C66.5415 61.6535 69.885 58.8047 73.3771 58.8047C74.9389 58.8047 76.2933 59.3932 77.1899 60.4618C78.1124 61.5611 78.464 63.0544 78.1798 64.6663ZM86.2525 52.9801H84.4288V52.98C84.0528 52.98 83.7494 52.8552 83.5513 52.6193C83.3458 52.3742 83.2707 52.0221 83.3404 51.6279L83.6652 49.7862H86.8157L86.2525 52.9801Z" fill="#1FA2FF"/>
<path d="M27.9598 62.934C27.461 62.3396 26.7109 61.9985 25.9018 61.9985C24.3959 61.9985 23.0096 63.1701 22.7458 64.6662C22.6029 65.4772 22.81 66.2871 23.3137 66.8875C23.8126 67.482 24.5627 67.823 25.3716 67.823C26.8775 67.823 28.2638 66.6513 28.5276 65.1556C28.6707 64.3443 28.4638 63.5347 27.9598 62.934Z" fill="#1FA2FF"/>
<path d="M74.375 62.934C73.876 62.3396 73.1259 61.9985 72.3172 61.9985C70.8112 61.9985 69.425 63.1701 69.1613 64.666C69.0184 65.4772 69.2251 66.2869 69.7291 66.8875C70.228 67.482 70.978 67.823 71.787 67.823C73.2929 67.823 74.6792 66.6513 74.943 65.1556C75.0861 64.3443 74.879 63.5347 74.375 62.934Z" fill="#1FA2FF"/>
<path d="M56.8431 55.9854H38.9867C38.2086 55.9854 37.5775 56.6162 37.5775 57.3946C37.5775 58.1728 38.2084 58.8038 38.9867 58.8038H56.8431C57.6213 58.8038 58.2523 58.173 58.2523 57.3946C58.2521 56.6162 57.6213 55.9854 56.8431 55.9854Z" fill="#1FA2FF"/>
<path d="M31.4712 49.9731H5.47561C4.69742 49.9731 4.06637 50.604 4.06637 51.3824C4.06637 52.1606 4.69707 52.7916 5.47561 52.7916H31.4712C32.2494 52.7916 32.8804 52.1607 32.8804 51.3824C32.8804 50.604 32.2496 49.9731 31.4712 49.9731Z" fill="#1FA2FF"/>
<path d="M58.3818 44.3042L53.1646 39.7949C52.5757 39.2862 51.6859 39.3507 51.1768 39.9396C50.6678 40.5284 50.7326 41.4182 51.3215 41.9273L53.6749 43.9615H17.9432C17.165 43.9615 16.534 44.5923 16.534 45.3707C16.534 46.1489 17.1649 46.7799 17.9432 46.7799H52.7812L49.8746 48.7055C49.2257 49.1351 49.0483 50.0096 49.4781 50.6584C49.7491 51.0678 50.1974 51.2895 50.6541 51.2895C50.9212 51.2895 51.1916 51.2135 51.431 51.0548L58.2385 46.5455C58.6062 46.3022 58.8384 45.9007 58.8666 45.4605C58.8947 45.0202 58.7154 44.5923 58.3818 44.3042Z" fill="#1FA2FF"/>
</svg>
